<svg width="56" height="56" viewBox="0 0 56 56" fill="none" xmlns="http://www.w3.org/2000/svg">
<g clip-path="url(#clip0_101_1990)">
<circle cx="28" cy="28" r="20" fill="#15B5BF"/>
<path d="M37.9771 23.9662C37.9699 23.8484 37.9047 23.7542 37.8177 23.7385C37.035 23.5866 33.2908 22.77 31.7883 20.7494C30.1046 18.4879 26.1744 17.7315 24.4907 17.7315C23.1089 17.7315 22.4833 13.6718 22.3021 12.2113C22.2755 12.0019 22.0823 11.926 21.976 12.0857C21.3817 12.9991 20 15.3653 20 17.7315V24.0578C20.1594 22.7177 20.8334 19.2208 23.5655 19.0349C23.6887 19.0271 23.795 19.1318 23.795 19.2653V20.8567C23.795 20.9875 23.8964 21.0949 24.0172 21.087C25.0052 21.032 28.9789 21.121 30.1553 25.9162C30.1795 26.0182 30.264 26.0915 30.3631 26.0915H31.2641C31.3849 26.0915 31.4791 26.1988 31.4767 26.3271C31.4549 27.4212 31.1192 31.9467 27.1599 31.9467C21.4856 31.9467 20.2488 36.8021 20 39.4902V44C20 34.4464 28.5296 35.954 28.9644 35.8388C28.9765 35.8362 28.9886 35.8336 28.9982 35.8336C38.3105 35.8205 38.0689 25.5419 37.9771 23.9662Z" fill="white"/>
</g>
<defs>
<clipPath id="clip0_101_1990">
<rect width="40" height="40" fill="white" transform="translate(8 8)"/>
</clipPath>
</defs>
</svg>
