<svg width="22" height="36" viewBox="0 0 22 36" fill="none" xmlns="http://www.w3.org/2000/svg">
<path d="M21.9721 13.4619C21.9632 13.3294 21.8835 13.2234 21.7772 13.2058C20.8206 13.035 16.2443 12.1163 14.4079 9.84302C12.3501 7.29887 7.54644 6.44788 5.48859 6.44788C3.79979 6.44788 3.03511 1.88079 2.81368 0.237698C2.7812 0.00212937 2.545 -0.0832643 2.4151 0.0963569C1.6888 1.12403 0 3.78595 0 6.44788V13.565C0.194861 12.0574 1.01859 8.12337 4.3578 7.9143C4.50838 7.90547 4.63828 8.02325 4.63828 8.17342V9.96375C4.63828 10.111 4.76229 10.2317 4.90991 10.2229C6.11746 10.161 10.9742 10.2612 12.4121 15.6557C12.4416 15.7705 12.5449 15.853 12.666 15.853H13.7672C13.9149 15.853 14.03 15.9737 14.027 16.118C14.0005 17.3488 13.5901 22.4401 8.75103 22.4401C1.81575 22.4401 0.304101 27.9023 0 30.9264V36C0 25.2522 10.4251 26.9483 10.9565 26.8187C10.9713 26.8158 10.986 26.8128 10.9978 26.8128C22.3795 26.7981 22.0843 15.2346 21.9721 13.4619Z" fill="white"/>
</svg>
